<svg xmlns="http://www.w3.org/2000/svg" viewBox="0 0 204.32 318.5">
  <title>morty-head</title>
  <path d="M106 172.21A29.82 29.82 0 1 0 135.84 202 29.86 29.86 0 0 0 106 172.21zm0 55.65A25.82 25.82 0 1 1 131.84 202 25.85 25.85 0 0 1 106 227.86z"/>
  <path d="M198.25 199.11c0-14.29-10-26.14-22.91-28l-4.82-5.42a2 2 0 0 0-1.41-3.56l-1.56.16-.3-.34c.8-3 2.77-11.46 1.5-17.65-1.22-6-8.4-13-15.25-19.14-.58-.52-1-.93-1.34-1.21-3.09-2.92-14.69-12.72-34.09-16.26s-27.16-1.26-31.27 0l-.24.07c-2.12.64-10.38 3.76-18.37 6.79-7 2.66-14.27 5.4-16 5.95-4 1.24-14.66 8.48-19.87 17.3a25.44 25.44 0 0 1-8 8.65c-1.17.83-2.11 1.48-2.38 2.63-.11.28-.52 1.15-.92 2-2.79 5.85-10.19 21.39-11.73 37.29-.53 5.46-1.28 9.59-1.95 13.23-1.61 8.78-2.58 14.08 3 23.91 5.42 9.59 6.82 14.3 7.57 16.84a13.69 13.69 0 0 0 .79 2.23c.85 1.69 5.33 8.44 11.13 10.14 2 4.51 5 7.62 8.86 9.22a16.1 16.1 0 0 0 5.69 1.17 126.27 126.27 0 0 0 16.44 20c9.06 8.87 27.11 11.4 39 13.08 2.26.32 4.21.59 5.85.87a52.62 52.62 0 0 0 8.65.61 141.62 141.62 0 0 0 33.43-4.67c7.15-1.94 14.83-8.62 20-13.89A130.5 130.5 0 0 0 185 259.26c8.17-13.18 7.08-36.88 6.77-41.6a29.28 29.28 0 0 0 6.48-18.55zm-4 0c0 13.39-10.1 24.29-22.51 24.29s-22.51-10.9-22.51-24.29 10.1-24.29 22.51-24.29 22.51 10.9 22.51 24.29zm-172 43.64a12.25 12.25 0 0 1-.53-1.58c-.79-2.69-2.27-7.69-7.92-17.67-4.85-8.57-4.12-12.54-2.53-21.22.65-3.53 1.45-7.93 2-13.56 1.47-15.2 8.65-30.28 11.36-36 .64-1.35.94-2 1.1-2.41.2-.17.58-.44.9-.66a29.46 29.46 0 0 0 9.11-9.89c4.8-8.12 14.52-14.55 17.61-15.51 1.88-.58 8.87-3.23 16.26-6 7.56-2.86 16.12-6.1 18.11-6.7l.24-.07c3.79-1.14 10.84-3.26 29.4.12 18.33 3.34 29.18 12.51 32.07 15.24.32.3.81.74 1.43 1.29 3.52 3.13 12.87 11.44 14 16.95.85 4.17-.09 9.87-.88 13.45-5.49-5.23-15.91-13.25-29.81-15.3-3.73-.55-7.05-1.16-10.27-1.75-13.9-2.55-23.93-4.39-41.47 3.88-20 9.45-42.79 27.68-46.6 50.49l-.39 2.15c-3.22 19.32-4.49 26.92-2.5 38.6a16.52 16.52 0 0 0-3.55 4.73 13.7 13.7 0 0 0-1.19 8.13 22.26 22.26 0 0 1-5.96-6.72zm159.32 14.41c-11.86 19.14-26.81 31.79-34.85 34-11.74 3.18-30.5 5.58-40.35 3.9-1.7-.29-3.68-.57-6-.89-11.42-1.6-28.69-4-36.81-12a124.53 124.53 0 0 1-14.67-17.48 18.19 18.19 0 0 0 3.29-1 2 2 0 0 0-1.54-3.69c-.05 0-5.46 2.24-10.5.14-3.08-1.29-5.46-4-7.08-8-1.37-3.4-1.4-6.39-.08-9.11 2.92-6 11.5-8.65 11.65-8.69a2 2 0 0 0-1.12-3.84 30 30 0 0 0-7 3.24c-1.38-9.93-.1-17.55 2.83-35.14l.36-2.15C43.29 175.22 65 158 84.1 149c16.37-7.73 25.39-6.07 39-3.57 3.25.6 6.61 1.21 10.41 1.77 14.16 2.08 24.67 11.2 29.17 15.79a44 44 0 0 0-8.56 2.24 2 2 0 1 0 1.51 3.7 47.9 47.9 0 0 1 10.26-2.39l3.9 4.39c-13.72 1.05-24.59 13.3-24.59 28.2 0 15.6 11.89 28.29 26.51 28.29a25.33 25.33 0 0 0 16.15-5.87c.24 8.07-.1 25.59-6.3 35.6z"/>
  <path d="M78.2 176.21a2 2 0 0 0 1.1-.33 59.82 59.82 0 0 1 11.52-5.37c7.12-2.51 16.51-1.51 16.6-1.51a2 2 0 0 0 .48-4c-.42-.05-10.4-1.21-18.44 1.68a62.43 62.43 0 0 0-12.37 5.79 2 2 0 0 0 1.11 3.67z"/>
  <circle cx="106.02" cy="199.11" r="3.46"/>
  <circle cx="177.91" cy="197.18" r="3.44"/>
  <path d="M150.42 221.19a2 2 0 0 0-2.44 3.17c2.83 2.19 8.51 7.94 6.9 10.75a3.63 3.63 0 0 1-2.27 1.9c-3 .77-7.57-2-10-3.53a2 2 0 1 0-2.07 3.42c3.45 2.1 7.35 4.25 11 4.25a8.38 8.38 0 0 0 2.1-.26 7.56 7.56 0 0 0 4.74-3.78c3.75-6.62-6.75-14.99-7.96-15.92zM148.79 254.71a2 2 0 0 0-1.37 2.47c.87 3 2.91 11.78 1.94 15.77a5.7 5.7 0 0 1-1.25 2.74c-.32-.23-1.36-1.23-2.51-5a2 2 0 0 0-3.89.91c.42 2.59.58 8.67-1.7 9.85-.24.12-.28.09-.35.05-1.44-.84-2.89-6.24-3-9.9a2 2 0 0 0-4 .15c0 .1.6 10.63 5 13.2a4.15 4.15 0 0 0 2.11.58 4.56 4.56 0 0 0 2.09-.53c2.29-1.18 3.36-3.64 3.82-6.18a4 4 0 0 0 2.57.88c2.29-.07 4.11-2.2 5-5.84 1.4-5.73-1.63-16.6-2-17.82a2 2 0 0 0-2.46-1.33z"/>
</svg>
