<svg xmlns="http://www.w3.org/2000/svg" viewBox="0 0 254 318.5">
  <title>rick-head</title>
  <path d="M95.22 237.47a4.26 4.26 0 0 0 .74-.06c6.68-1.17 12.56-18.35 13.77-22.88a2 2 0 0 0-3.87-1c-2.61 9.79-8.18 19.55-10.59 20-.16 0-.38-.26-.5-.43-3.12-4.49-2.75-14.3-2.55-19.57 0-1.12.08-2.07.08-2.79a5.92 5.92 0 0 1 2.83-4.77 2 2 0 0 0-2-3.48c-.2.11-4.85 2.8-4.85 8.24 0 .68 0 1.58-.07 2.64-.23 6.14-.61 16.42 3.26 22a4.45 4.45 0 0 0 3.75 2.1zM161.36 202.27a2 2 0 0 0-2.49 1.33c-.05.16-1.3 4-7.35 7.14-5.32 2.78-18.47 2.47-23.08 2.11a2 2 0 0 0-2.15 1.84 2 2 0 0 0 1.84 2.15c.29 0 3.26.24 7.18.24 5.78 0 13.65-.48 18.07-2.8 7.67-4 9.27-9.33 9.33-9.56a2 2 0 0 0-1.35-2.45zM142.77 246.51a2 2 0 0 0-1.64 3.65c.11.05 11.39 5.25 10.82 14.38-.22 3.56-2.44 6-6.77 7.43a27.23 27.23 0 0 1-8.07 1.2 2 2 0 0 0-2 2 2 2 0 0 0 2 2h.06c8.69 0 18.15-3.25 18.72-12.37.81-11.92-12.55-18.03-13.12-18.29z"/>
  <path d="M248.83 157a2 2 0 0 0-1.75-1.56c-14.43-1.51-42.35-17-48.32-20.34 2.09-13.58 21.24-55.66 21.43-56.1a2 2 0 0 0-2.41-2.74c-22 6.83-51.36 8.71-58.74 9.08-3.8-23-2.68-74.84-2.67-75.38a2 2 0 0 0-2.92-1.82c-15.07 7.77-49.16 56.76-55.36 65.8-17.16-7.83-46.67-41.25-47-41.59a2 2 0 0 0-3.46.89 147.76 147.76 0 0 0-2.79 34c.59 13.75 4.61 26.55 6.48 31.86-14 .67-43.74-1.94-44.06-2a2 2 0 0 0-2 2.91c4.44 8.61 28 38.61 32.32 44.06-2.92 8-23.45 19-31.39 22.75a2 2 0 0 0 .59 3.8c5.15.67 30.23 16.87 31.53 25.56 1 6.42-12.66 19.42-21.48 26.11a2 2 0 0 0 1.21 3.59c3.1 0 15.64 3.9 24 6.75a15.43 15.43 0 0 0 5.63 9.24c-1.72 3.23-6.19 11.11-11 15.43a2 2 0 0 0 1.52 3.48l13.52-1.26c-.6 3.51-2.1 10.06-5.45 14.38a2 2 0 0 0 1.74 3.27l17.7-.7c6.86 14.25 23.17 32.12 50.5 32.12a72.06 72.06 0 0 0 17-2.14c15.86-3.85 28.89-14.75 37.93-31.61l21.28 1.58h.15A2 2 0 0 0 194 273c-2.15-2-5.4-10.11-7.43-16l32.27-3.25a2 2 0 0 0 1.71-1.46 2 2 0 0 0-.74-2.15c-1.4-1.05-6.82-10.18-11.44-18.7l34.9-17.44a2 2 0 0 0-.18-3.66c-3.49-1.33-23.6-15.24-37.6-25.19 6.79-4.68 28.48-17.75 42.4-26a2 2 0 0 0 .94-2.15zM45.95 231c-.72-6.94 5.28-10.59 8.61-12.07.43 6.33 1.09 15.94 1.62 23.17a21 21 0 0 1-4.6-2.28l-.18-.12a11.88 11.88 0 0 1-5.45-8.7zm10.48-87.8a3.89 3.89 0 0 1 2.52-1.68 15.5 15.5 0 0 1 4.65-.53c2.23.68 18.32 5.57 26 7.46 8.15 2 15.63 2.29 21.65.84 5.3-1.28 30.46-8.81 33.23-9.63a13.71 13.71 0 0 1 2.91.13c.47.08 2 .39 2.06 1.07a3.63 3.63 0 0 1-2 3.32c-1.06.41-10.76 4.15-20 7.49a37.17 37.17 0 0 0-6.33 2.24c-2.26.78-4.35 1.48-6.09 2-9.35 2.9-19.5 1.59-20.52 1.45-4.16-1-9.12-2.3-13.93-3.56h-.06c-9-2.36-17.56-4.69-19.23-5.45-1.1-.5-4.44-2-5-3.65a1.82 1.82 0 0 1 .14-1.5zm5.26 17.31a2 2 0 1 0-1.87-3.51 28.33 28.33 0 0 0-2.58 1.57v-7.76c.78.44 1.6.84 2.4 1.2 2.08.95 11.51 3.5 20 5.7s14.86 9.59 16.84 18.46c-25.87-1.14-41.56 2.48-47.53 4.25a24.07 24.07 0 0 1 12.74-19.9zm.81 21.1a3.56 3.56 0 1 0 6.56-.82 188.9 188.9 0 0 1 27.94-.61c0 .55.07 1.1.07 1.66A24.11 24.11 0 0 1 49 184.56a89.21 89.21 0 0 1 13.49-2.94zm-6.34 75.91a2 2 0 0 0-2.16-2.17l-10.79 1a80.29 80.29 0 0 0 8-12.21 27.79 27.79 0 0 0 5.37 2.22c.2 2.58.37 4.48.47 5.23a43.24 43.24 0 0 0 5.54 16.23 11.3 11.3 0 0 0 1.41 4.72l-12.31.46a46.71 46.71 0 0 0 4.47-15.47zm76.16 45c-32.64 7.97-52.32-9.12-61.09-24.23a25.89 25.89 0 0 0 9.23 1.55 2 2 0 1 0 0-4c-6.28 0-13.71-2.29-14-8.76-.28-6.31 7.45-12.2 7.59-12.31a2 2 0 0 0-2.39-3.21c-.29.22-5.54 4.18-8 9.73a42.51 42.51 0 0 1-2.74-10.21c-.11-.83-.31-3.22-.55-6.42-.62-8.15-1.54-21.56-2-28.36a24.91 24.91 0 0 0 12.66 3.58 25.22 25.22 0 0 0 11.75-3 2 2 0 1 0-1.85-3.54c-7.32 3.83-15.2 3.29-22.19-1.53a9 9 0 0 1-3.82-8.38 28.1 28.1 0 0 0 46.13-21.56 29.79 29.79 0 0 0-.26-3.73 2 2 0 0 0 0-.21A30 30 0 0 0 92.67 161l1 .24h.18a53.74 53.74 0 0 0 7.56.49 56.24 56.24 0 0 0 9.23-.74c-5.09 5-8.55 11.47-8.6 19a2.06 2.06 0 0 0 0 .39c.14 15.39 13.38 27.87 29.64 27.87s29.65-12.61 29.65-28.11a26.65 26.65 0 0 0-.86-6.71 2 2 0 0 0-.14-.46 28.78 28.78 0 0 0-18.78-19.35 2 2 0 0 0-1.27 3.79 25 25 0 0 1 15.38 14.21c-30.18-1.13-43.58 2.24-49.27 4.77 1.58-8.48 8.37-15.16 16.16-18.78 11.11-3.85 26.31-9.72 26.49-9.79l.14-.06a7.52 7.52 0 0 0 4.3-7.32 4.52 4.52 0 0 0-1.66-3.13c-2.5-2.08-7-1.77-7.85-1.69l-.38.08c-.28.08-27.84 8.33-33.23 9.64s-12.23 1-19.75-.83c-8-2-25.84-7.42-26-7.47l-.22-.07h-.23a19.81 19.81 0 0 0-2.65 0c2.91-7.65 11.23-26.86 22.9-31.33 14.84-5.68 44.48-7.37 59.06 2.77l1.85 1.27c14.35 9.86 33.94 23.33 34.35 97.66a26.12 26.12 0 0 0-4.57.11 2 2 0 0 0 .54 4c.09 0 8.47-1.09 13.53 3.34 2.56 2.24 3.86 5.61 3.86 10 0 10.76-7.9 14.28-13.15 15.44a2 2 0 0 0-.51.11 22.83 22.83 0 0 1-4 .46 2 2 0 0 0 0 4 22.23 22.23 0 0 0 2.22-.17c-2.08 10.64-11.7 49.78-45.27 57.93zm-7.59-121.02a3.54 3.54 0 0 0 3-5.4 231 231 0 0 1 29.07-.37 22.59 22.59 0 0 1 .46 4.46c0 13.3-11.5 24.11-25.65 24.11-13.8 0-25.08-10.3-25.62-23.15 1.37-.88 5.48-2.94 15.33-4.33a3.52 3.52 0 0 0-.2 1.12 3.56 3.56 0 0 0 3.61 3.56zm76 2.26a2 2 0 0 0 .25 3C204.06 189 228 206.09 238 212.1l-33.3 16.6a2 2 0 0 0-.87 2.73c1.89 3.54 7.21 13.34 10.88 18.62l-31.06 3.13a2 2 0 0 0-1.71 2.59c.41 1.3 3.4 10.57 6.61 16.34L173.16 271l.21-.42a105.93 105.93 0 0 0 8.36-26.69c6.39-1.69 15.23-6.32 15.23-19 0-5.61-1.76-10-5.23-13a18 18 0 0 0-8.13-3.89c-.32-76.91-21-91.11-36.09-101.49l-1.83-1.26C129.41 93.87 98.24 96.1 82.91 102c-15 5.73-24.29 30.8-26.1 36.07a7.14 7.14 0 0 0-4 3.44 5.76 5.76 0 0 0-.32 4.6 6.33 6.33 0 0 0 1 1.72 2 2 0 0 0-.23.9v13.12a28.07 28.07 0 0 0-1.8 38.1c-.88 3.38-1 8.94 2.72 13.12l.11 1.65c-4.71 1.73-11.52 6.18-12.31 13.71-4.46-1.49-13.21-4.33-19.08-5.7 6.9-5.73 20.75-18.43 19.45-27.1-.94-6.25-9.12-13.46-15.82-18.41a92.92 92.92 0 0 0-14.31-8.82c8.85-4.51 27.68-15.1 29.61-24.32a2 2 0 0 0-.39-1.65c-.25-.32-22.88-28.89-30.62-41 9.4.75 33.21 2.48 43.54 1.46a2 2 0 0 0 1.64-2.71c0-.18-6.39-16.18-7.12-33.09a145.92 145.92 0 0 1 2-29.06C59 47 83.16 72.54 98.11 78.29a2 2 0 0 0 2.37-.74c.37-.54 34.92-51.29 51.82-63.93-.2 12.86-.54 54.88 3.1 74.17a2 2 0 0 0 2 1.63c.34 0 32.13-1.21 57.33-8.11-5.1 11.45-19.29 44.07-20.14 54.71a2 2 0 0 0 1 1.89c1.25.73 28 16.19 45.64 20.53-11.23 6.66-37.74 22.56-40.52 25.32z"/>
  <path d="M125.42 282.27a7.47 7.47 0 0 0-6 .68 2 2 0 0 0-.55.48c-1.34 1.71-1.16 3.93.46 5.8a10.22 10.22 0 0 0 6.83 3.3 4.17 4.17 0 0 0 2.1-.51c.59-.34 2.43-1.69 1.33-4.92-.83-2.49-2.24-4.1-4.17-4.83zm-2.35 5a3.4 3.4 0 0 1-1-1.13 3 3 0 0 1 2-.12 3.5 3.5 0 0 1 1.77 2.37v.14a6.52 6.52 0 0 1-2.76-1.25zM89.6 281.9a4.38 4.38 0 1 0 4.4 4.38 4.38 4.38 0 0 0-4.4-4.38zm0 4.75a.38.38 0 1 1 .38-.37.38.38 0 0 1-.38.37z"/>
  <path d="M147.95 264.07c.92-4.87-6.1-8.48-8.41-9.67a41.2 41.2 0 0 0-7.2-2.83 2 2 0 0 0-.43-.12c-18.8-5.35-44.67-1.08-52.36 3s-10.87 7.52-10.16 11c1.11 5.34 11.42 6.38 13.48 6.54 1.32.1 2.78.18 4.35.25.32 3.2 1.73 7.22 5.57 7.66 1.06.12 2.09.18 3.09.23 2.08.11 4.44.24 4.93 1 .23.38.48.81.75 1.27 1.56 2.7 3.33 5.75 5.76 6.38a5.84 5.84 0 0 0 4.85-.92c1.14-.84 2.54-2.52 2.73-5.77v-.77c.13-2.35.26-4.79.91-4.85 2.6-.26 5.28-3 6.51-4.36 5.14-.22 9.83-.51 13.49-.89.13-.07 11.06-1.43 12.14-7.15zm-19.9-3.22a8.33 8.33 0 0 0-.89 0 6.65 6.65 0 0 0 3.88-2.39 5.35 5.35 0 0 0 2.9 1.76 5.65 5.65 0 0 0 1 .12 6.79 6.79 0 0 0-2.35 2 8.48 8.48 0 0 0-4.54-1.49zm-2.89-3.71c-.76.09-1.79-1.64-2.45-3.51a60.69 60.69 0 0 1 6 1.11c-1 1.93-1.71 2.2-3.55 2.39zm-5 .45c1.06 1.84 2.65 3.55 4.94 3.55h.46a6.65 6.65 0 0 0-2.47 1.3 8.72 8.72 0 0 0-5.52-2.29 5.08 5.08 0 0 0-4.06 1.46 9.49 9.49 0 0 0-5.24-1.13A6.41 6.41 0 0 0 103 263a8.2 8.2 0 0 0-6-2.59 7.89 7.89 0 0 0 2.21-2.25c1.21 1.53 2.87 2.95 4.89 2.95a4.42 4.42 0 0 0 .72-.06 8.52 8.52 0 0 0 5.37-3.85 5.67 5.67 0 0 0 4.49 2.71 7 7 0 0 0 5.46-2.33zm-16-.47c-.67.11-2.23-1.68-3.21-3.67 2.24-.23 4.56-.39 6.93-.47-.63 2.02-2.23 3.9-3.69 4.14zm-11.12.73c-.57.12-1.83-1.09-2.95-2.7 2-.43 4.11-.82 6.42-1.16a4.18 4.18 0 0 1-3.44 3.86zm-4.7 1.53a6.55 6.55 0 0 0 4.81 2.47 7.94 7.94 0 0 0-1.47 1.66 7.4 7.4 0 0 0-3.68-1.65 6 6 0 0 0-1.65 0 7.76 7.76 0 0 0 2.02-2.49zm-6.56 4.9l-.28-.43a4.86 4.86 0 0 0 .89-.11c-.19.17-.39.35-.58.53zm-5 .62c.74.14 1.49 1.18 2 2.39a17.42 17.42 0 0 1-4.41-1.55 2.51 2.51 0 0 1 2.48-.85zm10.61.93a4.49 4.49 0 0 1 3.11 2.48c-2.49-.08-4.78-.19-6.77-.33.9-.98 2.38-2.32 3.73-2.16zm7.42 2.58a9 9 0 0 0-.49-1.39c.36-.94 1.21-2.59 2.65-2.59a4.65 4.65 0 0 1 4.45 4c-2.2.03-4.42.01-6.54-.02zm10.65 0a10.21 10.21 0 0 0-.22-1.2c.21-.84.92-2.81 2.94-2.81 3.41 0 3.41.07 3.69 3.53v.39c-2.03.09-4.19.12-6.33.14zm10.45-.18c0-.21 0-.42-.05-.61a22.54 22.54 0 0 0-.29-2.36c.25-.49.77-1.27 1.55-1.19 2 .19 3.91.83 4.13 4-1.66.09-3.45.15-5.25.2zm9.07-2.15a2.89 2.89 0 0 1 2.78-1.29 3.82 3.82 0 0 1 3.78 2.68c-1.94.15-4.06.28-6.3.39a11 11 0 0 0-.18-1.73zm10.18-.4c.48-.89 1.27-1.88 1.82-1.88 1.07 0 2.45 1.31 3.07 2.16a20.58 20.58 0 0 1-4.46 1.15 9.3 9.3 0 0 0-.36-1.39zm8.78-2.4a1.55 1.55 0 0 1-.43.72c-1.21-1.93-3.57-3.91-6-4.16a9.16 9.16 0 0 0 1.9-1c3.83 2.28 4.73 3.85 4.59 4.48zm-26-10.17c-.74 2.4-2.09 2.78-3.36 2.78-.69 0-1.7-1.49-2.32-3 2.02.04 3.92.11 5.8.26zm-36.67 4.8a24 24 0 0 1 3.82-1.51c-.25 1.28-1.1 2.72-3.6 3.39a3.47 3.47 0 0 1-2.09-.79c.6-.31 1.26-.67 1.99-1.06zm34 14.49c-4.05.41-4.27 4.39-4.5 8.61v.76a3.58 3.58 0 0 1-1.1 2.77 1.82 1.82 0 0 1-1.49.28c-.86-.29-2.56-3.24-3.29-4.5-.28-.49-.55-.95-.8-1.35-1.58-2.59-4.91-2.77-8.12-2.94-.94-.05-1.92-.1-2.86-.21-1.14-.13-1.72-1.92-2-3.53 3.36.1 7 .14 10.87.14 4.53 0 9.24-.07 13.8-.19a1.73 1.73 0 0 1-.35.19z"/>
</svg>
